<svg width="16" height="16" viewBox="0 0 16 16" fill="none" xmlns="http://www.w3.org/2000/svg">
<g clip-path="url(#clip0_73_25149)">
<path d="M15.9999 7.66656C16 7.20681 15.864 6.75732 15.609 6.37473C15.3541 5.99214 14.9916 5.69354 14.5673 5.51656C14.2999 3.96978 13.4939 2.56747 12.292 1.55783C11.09 0.548181 9.56966 -0.00368784 7.99995 -0.000104732V-0.000104732C6.43023 -0.00368784 4.90986 0.548181 3.70792 1.55783C2.50599 2.56747 1.7 3.96978 1.43261 5.51656C0.949321 5.72061 0.548891 6.08156 0.295958 6.54116C0.0430251 7.00076 -0.0476502 7.53218 0.0385685 8.04965C0.124787 8.56712 0.382869 9.04043 0.771155 9.39319C1.15944 9.74595 1.65527 9.95757 2.17861 9.9939C2.43601 10.5463 2.7658 11.0619 3.15928 11.5272C2.8144 11.687 2.52219 11.9417 2.31686 12.2616C2.11154 12.5814 2.00161 12.9532 1.99995 13.3332V15.9999H3.33328V13.3332C3.33328 13.1564 3.40352 12.9868 3.52854 12.8618C3.65357 12.7368 3.82314 12.6666 3.99995 12.6666H4.35195C5.38833 13.4999 6.67045 13.9685 7.99995 13.9999V13.9999C9.33009 13.9687 10.6129 13.5001 11.6499 12.6666H11.9999C12.1768 12.6666 12.3463 12.7368 12.4714 12.8618C12.5964 12.9868 12.6666 13.1564 12.6666 13.3332V15.9999H13.9999V13.3332C13.9986 12.953 13.8889 12.581 13.6837 12.2609C13.4785 11.9408 13.1862 11.6858 12.8413 11.5259C13.2344 11.0604 13.5639 10.5448 13.8213 9.99256C14.4114 9.95257 14.9644 9.69029 15.3687 9.25862C15.773 8.82695 15.9986 8.25802 15.9999 7.66656ZM13.4986 8.64856L12.9419 8.5499L12.7539 9.08323C12.1433 10.8146 10.0866 12.6666 7.99995 12.6666C5.91328 12.6666 3.85728 10.8132 3.24595 9.08256L3.05928 8.5539L2.50595 8.64723C2.44903 8.65846 2.39127 8.66492 2.33328 8.66656C2.08637 8.66283 1.84956 8.56787 1.66848 8.39997C1.4874 8.23207 1.37485 8.00311 1.3525 7.75718C1.33015 7.51125 1.39958 7.26575 1.54743 7.06796C1.69528 6.87017 1.91108 6.73408 2.15328 6.6859L2.64528 6.5999L2.69728 6.1039C2.78662 5.2494 3.08201 4.42935 3.55811 3.71416C4.0342 2.99898 4.67676 2.41003 5.43061 1.9979C5.36971 2.21571 5.337 2.44043 5.33328 2.66656C5.33328 3.37381 5.61423 4.05208 6.11433 4.55218C6.61443 5.05228 7.2927 5.33323 7.99995 5.33323C8.70719 5.33323 9.38547 5.05228 9.88557 4.55218C10.3857 4.05208 10.6666 3.37381 10.6666 2.66656H9.33328C9.33328 2.93027 9.25508 3.18806 9.10857 3.40732C8.96206 3.62659 8.75383 3.79749 8.51019 3.8984C8.26656 3.99932 7.99847 4.02572 7.73983 3.97428C7.48119 3.92283 7.24361 3.79584 7.05714 3.60937C6.87067 3.4229 6.74368 3.18532 6.69223 2.92668C6.64079 2.66804 6.66719 2.39995 6.76811 2.15632C6.86902 1.91268 7.03992 1.70444 7.25919 1.55794C7.47845 1.41143 7.73624 1.33323 7.99995 1.33323C9.31717 1.33008 10.5887 1.81583 11.5683 2.69642C12.5479 3.57701 13.1659 4.78979 13.3026 6.0999L13.3546 6.5959L13.8466 6.68456C14.0902 6.73137 14.3077 6.86704 14.4569 7.06524C14.6061 7.26344 14.6763 7.51 14.6538 7.75705C14.6314 8.00409 14.5179 8.23398 14.3355 8.40206C14.1531 8.57014 13.9147 8.66441 13.6666 8.66656C13.6102 8.66522 13.5541 8.65942 13.4986 8.64923V8.64856Z" fill="#131313"/>
<path d="M6.33301 8.66748C6.88529 8.66748 7.33301 8.21977 7.33301 7.66748C7.33301 7.1152 6.88529 6.66748 6.33301 6.66748C5.78072 6.66748 5.33301 7.1152 5.33301 7.66748C5.33301 8.21977 5.78072 8.66748 6.33301 8.66748Z" fill="#131313"/>
<path d="M9.66699 8.66748C10.2193 8.66748 10.667 8.21977 10.667 7.66748C10.667 7.1152 10.2193 6.66748 9.66699 6.66748C9.11471 6.66748 8.66699 7.1152 8.66699 7.66748C8.66699 8.21977 9.11471 8.66748 9.66699 8.66748Z" fill="#131313"/>
</g>
<defs>
<clipPath id="clip0_73_25149">
<rect width="16" height="16" fill="white"/>
</clipPath>
</defs>
</svg>
